<?xml version="1.0" encoding="UTF-8"?>
<!DOCTYPE svg PUBLIC "-//W3C//DTD SVG 1.1//EN" "http://www.w3.org/Graphics/SVG/1.1/DTD/svg11.dtd">
<svg xmlns="http://www.w3.org/2000/svg" version="1.1" width="320px" height="320px" style="shape-rendering:geometricPrecision; text-rendering:geometricPrecision; image-rendering:optimizeQuality; fill-rule:evenodd; clip-rule:evenodd" xmlns:xlink="http://www.w3.org/1999/xlink">
<g><path style="opacity:0.993" fill="#ffd701" d="M 141.5,4.5 C 208.454,0.224715 259.621,26.2247 295,82.5C 316.064,122.034 320.398,163.367 308,206.5C 285.923,268.236 242.423,304.069 177.5,314C 110.506,318.755 59.3397,292.921 24,236.5C 2.93568,196.966 -1.39766,155.633 11,112.5C 33.2469,50.748 76.7469,14.748 141.5,4.5 Z"/></g>
<g><path style="opacity:1" fill="#fffefe" d="M 190.5,191.5 C 190.783,192.289 191.283,192.956 192,193.5C 192.5,152.168 192.667,110.835 192.5,69.5C 207.167,69.5 221.833,69.5 236.5,69.5C 236.5,130.167 236.5,190.833 236.5,251.5C 218.923,251.825 201.423,251.492 184,250.5C 162.22,209.938 140.72,169.271 119.5,128.5C 119.217,127.711 118.717,127.044 118,126.5C 117.5,168.165 117.333,209.832 117.5,251.5C 102.833,251.5 88.1667,251.5 73.5,251.5C 73.5,190.833 73.5,130.167 73.5,69.5C 91.1792,69.1671 108.846,69.5005 126.5,70.5C 148.101,110.702 169.434,151.035 190.5,191.5 Z"/></g>
<g><path style="opacity:1" fill="#ffe248" d="M 192.5,69.5 C 192.667,110.835 192.5,152.168 192,193.5C 191.283,192.956 190.783,192.289 190.5,191.5C 191.167,150.833 191.833,110.167 192.5,69.5 Z"/></g>
<g><path style="opacity:1" fill="#ffeb80" d="M 119.5,128.5 C 118.833,169.5 118.167,210.5 117.5,251.5C 117.333,209.832 117.5,168.165 118,126.5C 118.717,127.044 119.217,127.711 119.5,128.5 Z"/></g>
</svg>
