<svg id="svg" version="1.1" xmlns="http://www.w3.org/2000/svg" xmlns:xlink="http://www.w3.org/1999/xlink" width="400" height="400" viewBox="0, 0, 400,400"><g id="svgg"><path id="path0" d="M135.625 200.000 L 135.625 279.063 148.905 279.063 L 162.186 279.063 162.265 225.422 L 162.344 171.782 198.438 225.413 L 234.531 279.044 249.453 279.053 L 264.375 279.063 264.375 200.000 L 264.375 120.938 251.095 120.938 L 237.814 120.938 237.735 174.587 L 237.656 228.236 201.269 174.587 L 164.883 120.938 150.254 120.938 L 135.625 120.938 135.625 200.000 " stroke="none" fill="#fce41c" fill-rule="evenodd"></path><path id="path1" d="M185.753 45.161 C 89.330 53.917,23.610 144.150,46.235 236.719 C 66.798 320.851,154.134 372.153,239.804 350.424 C 331.138 327.257,381.509 230.883,347.661 144.063 C 322.511 79.555,255.795 38.801,185.753 45.161 M211.563 53.144 C 279.661 58.158,336.426 108.839,347.947 174.912 C 363.656 265.002,293.070 347.203,200.000 347.203 C 98.010 347.203,25.659 249.335,57.331 154.219 C 78.801 89.743,142.416 48.054,211.563 53.144 " stroke="none" fill="#fcd404" fill-rule="evenodd"></path><path id="path2" d="" stroke="none" fill="#fce814" fill-rule="evenodd"></path><path id="path3" d="" stroke="none" fill="#fce814" fill-rule="evenodd"></path><path id="path4" d="" stroke="none" fill="#fce814" fill-rule="evenodd"></path></g></svg>