<?xml version="1.0" standalone="no"?>
<!DOCTYPE svg PUBLIC "-//W3C//DTD SVG 20010904//EN"
 "http://www.w3.org/TR/2001/REC-SVG-20010904/DTD/svg10.dtd">
<svg version="1.0" xmlns="http://www.w3.org/2000/svg"
 width="1280.000000pt" height="1280.000000pt" viewBox="0 0 1280.000000 1280.000000"
 preserveAspectRatio="xMidYMid meet">
<metadata>
Created by potrace 1.14, written by Peter Selinger 2001-2017
</metadata>
<g transform="translate(0.000000,1280.000000) scale(0.100000,-0.100000)"
fill="#000000" stroke="none">
<path d="M6108 11395 c-2 -2 -49 -6 -105 -9 -55 -4 -112 -9 -125 -11 -12 -2
-50 -6 -83 -10 -78 -8 -186 -23 -255 -35 -30 -5 -71 -12 -90 -15 -19 -3 -53
-10 -75 -15 -22 -5 -53 -11 -70 -14 -262 -47 -776 -218 -1068 -356 -47 -22
-96 -45 -109 -50 -24 -11 -131 -68 -253 -135 -120 -65 -419 -255 -469 -296 -6
-5 -42 -33 -81 -61 -84 -62 -91 -68 -116 -90 -10 -10 -21 -18 -24 -18 -4 0
-35 -24 -69 -55 -6 -6 -27 -23 -46 -39 -115 -94 -349 -320 -465 -450 -38 -43
-75 -83 -80 -90 -6 -6 -49 -58 -95 -116 -47 -58 -89 -110 -95 -116 -5 -6 -17
-21 -25 -33 -8 -12 -37 -53 -65 -91 -86 -116 -275 -410 -275 -426 0 -2 -11
-22 -25 -44 -37 -58 -165 -313 -165 -327 0 -7 -4 -13 -10 -13 -5 0 -10 -6 -10
-13 0 -7 -11 -35 -24 -63 -13 -27 -48 -112 -79 -189 -149 -377 -237 -713 -302
-1145 -2 -14 -7 -54 -10 -90 -4 -36 -9 -72 -10 -80 -27 -143 -27 -814 0 -1000
2 -14 7 -54 10 -90 4 -36 9 -72 10 -80 7 -37 17 -102 20 -123 12 -95 54 -295
91 -432 14 -55 27 -104 28 -110 3 -17 38 -127 58 -189 11 -32 21 -63 23 -70 1
-6 7 -24 14 -41 7 -16 19 -50 28 -75 34 -100 140 -345 218 -500 95 -190 268
-489 288 -498 4 -2 7 -10 7 -17 0 -7 3 -15 8 -17 4 -1 33 -41 64 -88 32 -47
67 -96 78 -107 11 -12 20 -25 20 -28 0 -7 191 -245 241 -300 20 -22 61 -67 90
-99 70 -77 189 -195 271 -271 126 -116 156 -142 229 -201 41 -32 76 -61 79
-64 7 -8 143 -111 185 -140 20 -14 42 -30 48 -36 7 -6 17 -13 22 -15 6 -2 70
-43 142 -92 73 -48 137 -87 143 -87 5 0 10 -4 10 -10 0 -5 5 -10 11 -10 6 0
47 -22 92 -48 45 -27 102 -58 127 -71 25 -12 52 -26 60 -31 15 -9 193 -93 260
-123 19 -8 55 -24 80 -35 25 -10 90 -36 145 -57 55 -20 109 -41 120 -45 71
-31 395 -128 485 -146 14 -3 39 -9 55 -14 17 -5 41 -11 55 -14 14 -2 68 -14
120 -24 52 -11 115 -23 140 -27 25 -3 68 -10 95 -15 28 -5 73 -12 100 -15 28
-4 61 -8 75 -10 14 -2 60 -6 102 -10 43 -3 88 -8 100 -11 39 -9 648 -12 748
-3 164 13 227 20 249 24 13 2 49 7 82 10 33 4 70 8 82 11 12 2 42 7 67 10 25
3 108 19 185 35 77 16 151 32 165 35 122 25 530 148 625 189 17 7 46 18 65 25
37 14 86 33 135 54 17 7 41 18 55 24 154 64 675 341 700 372 3 3 23 17 45 30
22 13 42 27 45 30 3 4 16 13 29 20 14 7 30 17 35 21 6 5 67 51 136 101 134 99
202 152 235 181 11 11 42 38 69 60 107 91 345 323 431 419 96 108 105 119 210
248 56 69 55 68 141 185 529 723 856 1604 934 2520 13 155 13 615 0 770 -73
854 -351 1652 -823 2360 -54 81 -142 205 -174 245 -7 8 -35 44 -63 80 -48 61
-90 113 -133 164 -132 156 -443 463 -571 563 -25 19 -46 40 -46 44 0 5 -5 9
-11 9 -6 0 -36 23 -68 50 -32 28 -61 50 -65 50 -4 0 -14 7 -22 15 -9 8 -46 36
-82 62 -37 26 -69 50 -72 53 -3 3 -23 17 -45 30 -22 13 -46 30 -53 37 -7 7
-17 13 -22 13 -5 0 -15 6 -22 13 -45 46 -547 319 -708 386 -30 13 -68 29 -85
37 -16 7 -55 22 -85 34 -30 11 -64 25 -75 30 -11 5 -60 23 -110 40 -49 17
-101 35 -115 40 -25 9 -276 83 -340 100 -105 28 -346 78 -465 96 -27 4 -55 8
-61 9 -6 2 -36 6 -66 9 -31 4 -64 8 -74 10 -11 2 -59 7 -109 11 -49 4 -106 10
-125 12 -41 5 -647 12 -652 8z"/>
</g>
</svg>
